<?xml version="1.0" encoding="UTF-8" standalone="no"?>
<!-- Created with Inkscape (http://www.inkscape.org/) -->

<svg
   xmlns:dc="http://purl.org/dc/elements/1.1/"
   xmlns:cc="http://creativecommons.org/ns#"
   xmlns:rdf="http://www.w3.org/1999/02/22-rdf-syntax-ns#"
   xmlns:svg="http://www.w3.org/2000/svg"
   xmlns="http://www.w3.org/2000/svg"
   xmlns:xlink="http://www.w3.org/1999/xlink"
   xmlns:sodipodi="http://sodipodi.sourceforge.net/DTD/sodipodi-0.dtd"
   xmlns:inkscape="http://www.inkscape.org/namespaces/inkscape"
   id="svg2"
   version="1.1"
   inkscape:version="0.48.2 r9819"
   width="994"
   height="1528"
   sodipodi:docname="page5.jpg">
  <metadata
     id="metadata8">
    <rdf:RDF>
      <cc:Work
         rdf:about="">
        <dc:format>image/svg+xml</dc:format>
        <dc:type
           rdf:resource="http://purl.org/dc/dcmitype/StillImage" />
        <dc:title></dc:title>
      </cc:Work>
    </rdf:RDF>
  </metadata>
  <defs
     id="defs6" />
  <sodipodi:namedview
     pagecolor="#ffffff"
     bordercolor="#666666"
     borderopacity="1"
     objecttolerance="10"
     gridtolerance="10"
     guidetolerance="10"
     inkscape:pageopacity="0"
     inkscape:pageshadow="2"
     inkscape:window-width="1600"
     inkscape:window-height="838"
     id="namedview4"
     showgrid="true"
     inkscape:zoom="0.87370262"
     inkscape:cx="359.67955"
     inkscape:cy="272.87619"
     inkscape:window-x="0"
     inkscape:window-y="28"
     inkscape:window-maximized="1"
     inkscape:current-layer="svg2">
    <inkscape:grid
       type="xygrid"
       id="grid2987" />
  </sodipodi:namedview>
  <image
     width="994"
     height="1528"
     xlink:href="file:///home/whale/Work/ACBF/trunk/Sample%20Comic%20Book/Source/page5.jpg"
     id="image10"
     x="0"
     y="0" />
  <path
     style="fill:none;stroke:#000000;stroke-width:1px;stroke-linecap:butt;stroke-linejoin:miter;stroke-opacity:1"
     d="m 60,61 6,-5 212,0 6,6 0,40 -6,6 -213,0 -5,-8 z"
     id="path2989"
     inkscape:connector-curvature="0" />
  <path
     style="fill:none;stroke:#000000;stroke-width:1px;stroke-linecap:butt;stroke-linejoin:miter;stroke-opacity:1"
     d="m 74,366 17,-15 27,-8 49,0 21,5 18,12 10,15 3,29 -8,23 -13,13 -27,9 -29,1 -27,-1 -19,-5 -20,-15 -9,-21 2,-28 z"
     id="path2991"
     inkscape:connector-curvature="0" />
  <path
     style="fill:none;stroke:#000000;stroke-width:1px;stroke-linecap:butt;stroke-linejoin:miter;stroke-opacity:1"
     d="m 515,74 11,-11 18,-5 28,0 16,4 10,7 5,10 0,17 -6,10 -13,8 -13,2 -19,1 -16,-2 -13,-6 -9,-11 -1,-12 z"
     id="path2993"
     inkscape:connector-curvature="0" />
  <path
     style="fill:none;stroke:#000000;stroke-width:1px;stroke-linecap:butt;stroke-linejoin:miter;stroke-opacity:1"
     d="m 631,61 6,-6 229,0 7,6 0,32 -7,6 -229,0 -7,-6 0,-31 z"
     id="path2995"
     inkscape:connector-curvature="0" />
  <path
     style="fill:none;stroke:#000000;stroke-width:1px;stroke-linecap:butt;stroke-linejoin:miter;stroke-opacity:1"
     d="m 662,143 1,-9 10,-11 18,-6 21,-2 29,2 18,6 9,11 2,11 -4,13 -10,9 -19,5 -20,1 -23,-1 -12,-3 -15,-9 -5,-10 z"
     id="path2997"
     inkscape:connector-curvature="0" />
  <path
     style="fill:none;stroke:#000000;stroke-width:1px;stroke-linecap:butt;stroke-linejoin:miter;stroke-opacity:1"
     d="m 800,126 6,-8 76,0 7,7 0,35 -5,6 -79,0 -5,-8 z"
     id="path2999"
     inkscape:connector-curvature="0" />
  <path
     style="fill:none;stroke:#000000;stroke-width:1px;stroke-linecap:butt;stroke-linejoin:miter;stroke-opacity:1"
     d="m 287,491 18,1 19,5 9,9 1,9 -1,7 -11,1 -5,6 0,7 -10,3 -20,1 -19,-2 -12,-3 -10,-8 -3,-11 2,-11 10,-9 17,-4 z"
     id="path3001"
     inkscape:connector-curvature="0" />
  <path
     style="fill:none;stroke:#000000;stroke-width:1px;stroke-linecap:butt;stroke-linejoin:miter;stroke-opacity:1"
     d="m 319,535 5,-8 8,-2 64,0 8,7 0,30 -5,6 -32,0 -11,1 -15,-1 -16,0 -6,-7 z"
     id="path3003"
     inkscape:connector-curvature="0" />
  <path
     style="fill:none;stroke:#000000;stroke-width:1px;stroke-linecap:butt;stroke-linejoin:miter;stroke-opacity:1"
     d="m 64,826 6,-7 330,0 6,5 1,3 0,41 -224,0 -7,6 0,9 -108,0 -4,-5 z"
     id="path3005"
     inkscape:connector-curvature="0" />
  <path
     style="fill:none;stroke:#000000;stroke-width:1px;stroke-linecap:butt;stroke-linejoin:miter;stroke-opacity:1"
     d="m 180,875 5,-4 2,-1 318,0 7,8 0,16 -5,6 -323,0 -5,-5 0,-19 z"
     id="path3007"
     inkscape:connector-curvature="0" />
  <path
     style="fill:none;stroke:#000000;stroke-width:1px;stroke-linecap:butt;stroke-linejoin:miter;stroke-opacity:1"
     d="m 728,518 4,-10 12,-7 19,-4 23,-2 24,2 26,5 11,10 0,13 -3,5 -9,7 -76,0 -4,3 -10,-2 -10,-5 -7,-9 z"
     id="path3009"
     inkscape:connector-curvature="0" />
  <path
     style="fill:none;stroke:#000000;stroke-width:1px;stroke-linecap:butt;stroke-linejoin:miter;stroke-opacity:1"
     d="m 756,544 5,-4 121,0 4,4 0,25 -6,5 -118,0 -6,-6 -1,-13 z"
     id="path3011"
     inkscape:connector-curvature="0" />
  <path
     style="fill:none;stroke:#000000;stroke-width:1px;stroke-linecap:butt;stroke-linejoin:miter;stroke-opacity:1"
     d="m 55,969 3,-11 8,-9 17,-5 20,-2 21,2 15,4 10,8 4,14 -4,14 -9,8 -17,5 -38,0 -11,-3 -11,-5 -8,-11 z"
     id="path3013"
     inkscape:connector-curvature="0" />
  <path
     style="fill:none;stroke:#000000;stroke-width:1px;stroke-linecap:butt;stroke-linejoin:miter;stroke-opacity:1"
     d="m 157,979 10,-14 21,-10 20,-4 30,-2 26,1 28,5 18,8 11,12 4,14 1,9 -3,17 -11,15 -20,9 -27,5 -52,0 -19,-3 -23,-9 -13,-15 -4,-16 1,-16 z"
     id="path3015"
     inkscape:connector-curvature="0" />
  <path
     style="fill:none;stroke:#000000;stroke-width:1px;stroke-linecap:butt;stroke-linejoin:miter;stroke-opacity:1"
     d="m 410,1306 13,-12 26,-8 31,-2 33,5 24,12 10,17 0,25 -4,11 -13,12 -20,8 -70,0 -12,-5 -15,-10 -7,-14 -2,-14 2,-17 z"
     id="path3017"
     inkscape:connector-curvature="0" />
  <path
     style="fill:none;stroke:#000000;stroke-width:1px;stroke-linecap:butt;stroke-linejoin:miter;stroke-opacity:1"
     d="m 411,1408 3,-10 5,-10 9,-7 11,-4 28,-1 39,2 13,7 8,12 3,16 -3,17 -5,10 -11,8 -18,5 -25,2 -19,-2 -17,-4 -12,-9 -8,-13 0,-4 z"
     id="path3019"
     inkscape:connector-curvature="0" />
</svg>
