<?xml version="1.0" encoding="UTF-8" standalone="no"?>
<!-- Created with Inkscape (http://www.inkscape.org/) -->

<svg
   xmlns:dc="http://purl.org/dc/elements/1.1/"
   xmlns:cc="http://creativecommons.org/ns#"
   xmlns:rdf="http://www.w3.org/1999/02/22-rdf-syntax-ns#"
   xmlns:svg="http://www.w3.org/2000/svg"
   xmlns="http://www.w3.org/2000/svg"
   xmlns:xlink="http://www.w3.org/1999/xlink"
   xmlns:sodipodi="http://sodipodi.sourceforge.net/DTD/sodipodi-0.dtd"
   xmlns:inkscape="http://www.inkscape.org/namespaces/inkscape"
   id="svg2"
   version="1.1"
   inkscape:version="0.48.2 r9819"
   width="994"
   height="1528"
   sodipodi:docname="page18.svg">
  <metadata
     id="metadata8">
    <rdf:RDF>
      <cc:Work
         rdf:about="">
        <dc:format>image/svg+xml</dc:format>
        <dc:type
           rdf:resource="http://purl.org/dc/dcmitype/StillImage" />
        <dc:title />
      </cc:Work>
    </rdf:RDF>
  </metadata>
  <defs
     id="defs6" />
  <sodipodi:namedview
     pagecolor="#ffffff"
     bordercolor="#666666"
     borderopacity="1"
     objecttolerance="10"
     gridtolerance="10"
     guidetolerance="10"
     inkscape:pageopacity="0"
     inkscape:pageshadow="2"
     inkscape:window-width="1600"
     inkscape:window-height="838"
     id="namedview4"
     showgrid="true"
     inkscape:zoom="2.4712042"
     inkscape:cx="376.37129"
     inkscape:cy="1125.3817"
     inkscape:window-x="0"
     inkscape:window-y="28"
     inkscape:window-maximized="1"
     inkscape:current-layer="svg2">
    <inkscape:grid
       type="xygrid"
       id="grid2987" />
  </sodipodi:namedview>
  <image
     width="994"
     height="1528"
     xlink:href="file:///home/whale/Work/ACBF/trunk/Sample%20Comic%20Book/Source/page18.jpg"
     id="image10"
     x="0"
     y="0" />
  <path
     style="fill:none;stroke:#000000;stroke-width:1px;stroke-linecap:butt;stroke-linejoin:miter;stroke-opacity:1"
     d="m 18,10 294,0 0,234 -132,0 -6,6 0,36 6,6 132,0 0,114 -294,0 z"
     id="path2989"
     inkscape:connector-curvature="0" />
  <path
     style="fill:none;stroke:#000000;stroke-width:1px;stroke-linecap:butt;stroke-linejoin:miter;stroke-opacity:1"
     d="m 312,40 300,0 0,486 -324,0 0,-120 24,0 0,-114 -132,0 -6,-6 0,-36 6,-6 132,0 z"
     id="path2991"
     inkscape:connector-curvature="0"
     sodipodi:nodetypes="ccccccccccccc" />
  <path
     style="fill:none;stroke:#000000;stroke-width:1px;stroke-linecap:butt;stroke-linejoin:miter;stroke-opacity:1"
     d="m 612,46 36,-30 60,12 24,6 228,0 0,108 18,12 0,12 -6,18 0,18 -12,30 0,294 -336,0 0,-174 -12,-6 z"
     id="path2993"
     inkscape:connector-curvature="0"
     sodipodi:nodetypes="cccccccccccccccc" />
  <path
     style="fill:none;stroke:#000000;stroke-width:1px;stroke-linecap:butt;stroke-linejoin:miter;stroke-opacity:1"
     d="m 42,532 450,0 0,456 -450,0 z"
     id="path3014"
     inkscape:connector-curvature="0" />
  <path
     style="fill:none;stroke:#000000;stroke-width:1px;stroke-linecap:butt;stroke-linejoin:miter;stroke-opacity:1"
     d="m 504,532 456,0 0,456 -456,0 z"
     id="path3016"
     inkscape:connector-curvature="0" />
  <path
     style="fill:none;stroke:#000000;stroke-width:1px;stroke-linecap:butt;stroke-linejoin:miter;stroke-opacity:1"
     d="m 42,1000 552,0 0,486 -552,0 z"
     id="path3018"
     inkscape:connector-curvature="0" />
  <path
     style="fill:none;stroke:#000000;stroke-width:1px;stroke-linecap:butt;stroke-linejoin:miter;stroke-opacity:1"
     d="m 588,1054 390,0 0,390 -390,0 z"
     id="path3020"
     inkscape:connector-curvature="0" />
</svg>
