<?xml version="1.0" encoding="UTF-8" standalone="no"?>
<!-- Created with Inkscape (http://www.inkscape.org/) -->

<svg
   xmlns:dc="http://purl.org/dc/elements/1.1/"
   xmlns:cc="http://creativecommons.org/ns#"
   xmlns:rdf="http://www.w3.org/1999/02/22-rdf-syntax-ns#"
   xmlns:svg="http://www.w3.org/2000/svg"
   xmlns="http://www.w3.org/2000/svg"
   xmlns:xlink="http://www.w3.org/1999/xlink"
   xmlns:sodipodi="http://sodipodi.sourceforge.net/DTD/sodipodi-0.dtd"
   xmlns:inkscape="http://www.inkscape.org/namespaces/inkscape"
   id="svg2"
   version="1.1"
   inkscape:version="0.48.1 "
   width="994"
   height="1528"
   sodipodi:docname="page16.jpg">
  <metadata
     id="metadata8">
    <rdf:RDF>
      <cc:Work
         rdf:about="">
        <dc:format>image/svg+xml</dc:format>
        <dc:type
           rdf:resource="http://purl.org/dc/dcmitype/StillImage" />
        <dc:title></dc:title>
      </cc:Work>
    </rdf:RDF>
  </metadata>
  <defs
     id="defs6" />
  <sodipodi:namedview
     pagecolor="#ffffff"
     bordercolor="#666666"
     borderopacity="1"
     objecttolerance="10"
     gridtolerance="10"
     guidetolerance="10"
     inkscape:pageopacity="0"
     inkscape:pageshadow="2"
     inkscape:window-width="1280"
     inkscape:window-height="744"
     id="namedview4"
     showgrid="true"
     inkscape:zoom="0.97366012"
     inkscape:cx="333.3663"
     inkscape:cy="382.74812"
     inkscape:window-x="-4"
     inkscape:window-y="-4"
     inkscape:window-maximized="1"
     inkscape:current-layer="svg2">
    <inkscape:grid
       type="xygrid"
       id="grid2987" />
  </sodipodi:namedview>
  <image
     width="994"
     height="1528"
     xlink:href="page16.jpg"
     id="image10"
     x="0"
     y="0" />
  <path
     style="fill:none;stroke:#000000;stroke-width:1px;stroke-linecap:butt;stroke-linejoin:miter;stroke-opacity:1"
     d="m 61,55 5,-4 275,0 5,4 0,30 -3,5 -278,0 -4,-5 z"
     id="path2989"
     inkscape:connector-curvature="0" />
  <path
     style="fill:none;stroke:#000000;stroke-width:1px;stroke-linecap:butt;stroke-linejoin:miter;stroke-opacity:1"
     d="m 182,115 6,-6 189,0 6,4 0,32 -4,4 -192,0 -5,-5 z"
     id="path2991"
     inkscape:connector-curvature="0" />
  <path
     style="fill:none;stroke:#000000;stroke-width:1px;stroke-linecap:butt;stroke-linejoin:miter;stroke-opacity:1"
     d="m 636,52 5,-5 286,0 5,4 0,32 -4,4 -288,0 -4,-6 z"
     id="path2993"
     inkscape:connector-curvature="0" />
  <path
     style="fill:none;stroke:#000000;stroke-width:1px;stroke-linecap:butt;stroke-linejoin:miter;stroke-opacity:1"
     d="m 305,438 7,-6 161,0 5,5 0,79 -4,5 -164,0 -5,-7 z"
     id="path2995"
     inkscape:connector-curvature="0" />
  <path
     style="fill:none;stroke:#000000;stroke-width:1px;stroke-linecap:butt;stroke-linejoin:miter;stroke-opacity:1"
     d="m 533,451 5,-6 114,0 4,4 0,30 -5,4 -113,0 -5,-6 z"
     id="path2997"
     inkscape:connector-curvature="0" />
  <path
     style="fill:none;stroke:#000000;stroke-width:1px;stroke-linecap:butt;stroke-linejoin:miter;stroke-opacity:1"
     d="m 551,503 5,-5 109,0 7,7 0,60 -7,7 -109,0 -5,-6 z"
     id="path2999"
     inkscape:connector-curvature="0" />
  <path
     style="fill:none;stroke:#000000;stroke-width:1px;stroke-linecap:butt;stroke-linejoin:miter;stroke-opacity:1"
     d="m 341,884 1,-8 3,-5 7,-5 10,-3 11,-2 22,0 13,2 9,3 7,6 4,11 -1,8 -4,7 -8,5 -11,3 -27,1 -12,-1 -8,-2 -9,-4 -5,-6 z"
     id="path3001"
     inkscape:connector-curvature="0" />
  <path
     style="fill:none;stroke:#000000;stroke-width:1px;stroke-linecap:butt;stroke-linejoin:miter;stroke-opacity:1"
     d="m 52,1157 2,-8 6,-12 13,-7 17,-3 29,0 16,3 12,6 7,11 0,18 -5,9 -10,6 -9,3 -8,2 -32,0 -12,-2 -12,-4 -9,-8 -3,-8 z"
     id="path3003"
     inkscape:connector-curvature="0" />
  <path
     style="fill:none;stroke:#000000;stroke-width:1px;stroke-linecap:butt;stroke-linejoin:miter;stroke-opacity:1"
     d="m 220,1170 3,-10 8,-8 10,-4 13,-3 17,-2 37,0 16,2 14,3 9,4 9,8 2,11 -3,11 -10,9 -13,4 -13,3 -48,0 -15,-1 -9,-2 -10,-3 -8,-4 -6,-6 z"
     id="path3005"
     inkscape:connector-curvature="0" />
  <path
     style="fill:none;stroke:#000000;stroke-width:1px;stroke-linecap:butt;stroke-linejoin:miter;stroke-opacity:1"
     d="m 237,1251 1,-8 4,-6 7,-5 13,-3 17,-2 17,2 12,3 8,6 5,10 -2,8 -4,7 -7,4 -10,3 -20,2 -19,-2 -11,-3 -7,-5 -3,-6 z"
     id="path3007"
     inkscape:connector-curvature="0" />
  <path
     style="fill:none;stroke:#000000;stroke-width:1px;stroke-linecap:butt;stroke-linejoin:miter;stroke-opacity:1"
     d="m 720,1147 2,-7 5,-6 8,-3 20,-2 16,1 13,2 8,7 2,6 -1,5 -3,5 -6,4 -4,2 -9,1 -28,0 -13,-3 -7,-4 z"
     id="path3009"
     inkscape:connector-curvature="0" />
  <path
     style="fill:none;stroke:#000000;stroke-width:1px;stroke-linecap:butt;stroke-linejoin:miter;stroke-opacity:1"
     d="m 672,1206 2,-11 3,-7 5,-7 10,-5 11,-3 17,-2 16,0 15,2 14,5 9,6 5,7 2,13 -1,13 -3,7 -6,7 -13,6 -17,3 -29,0 -10,-1 -16,-6 -9,-9 -3,-7 z"
     id="path3011"
     inkscape:connector-curvature="0" />
  <path
     style="fill:none;stroke:#000000;stroke-width:1px;stroke-linecap:butt;stroke-linejoin:miter;stroke-opacity:1"
     d="m 636,1431 2,-8 2,-5 5,-6 11,-6 11,-3 11,-2 25,-1 25,1 15,3 11,5 8,6 4,11 0,11 -4,10 -8,6 -10,5 -15,3 -54,0 -10,-2 -10,-3 -10,-6 -5,-7 -3,-6 z"
     id="path3013"
     inkscape:connector-curvature="0" />
</svg>
