<?xml version="1.0" encoding="UTF-8" standalone="no"?>
<!-- Created with Inkscape (http://www.inkscape.org/) -->

<svg
   xmlns:dc="http://purl.org/dc/elements/1.1/"
   xmlns:cc="http://creativecommons.org/ns#"
   xmlns:rdf="http://www.w3.org/1999/02/22-rdf-syntax-ns#"
   xmlns:svg="http://www.w3.org/2000/svg"
   xmlns="http://www.w3.org/2000/svg"
   xmlns:xlink="http://www.w3.org/1999/xlink"
   xmlns:sodipodi="http://sodipodi.sourceforge.net/DTD/sodipodi-0.dtd"
   xmlns:inkscape="http://www.inkscape.org/namespaces/inkscape"
   id="svg2"
   version="1.1"
   inkscape:version="0.48.2 r9819"
   width="994"
   height="1528"
   sodipodi:docname="page14-texts.svg">
  <metadata
     id="metadata8">
    <rdf:RDF>
      <cc:Work
         rdf:about="">
        <dc:format>image/svg+xml</dc:format>
        <dc:type
           rdf:resource="http://purl.org/dc/dcmitype/StillImage" />
        <dc:title />
      </cc:Work>
    </rdf:RDF>
  </metadata>
  <defs
     id="defs6" />
  <sodipodi:namedview
     pagecolor="#ffffff"
     bordercolor="#666666"
     borderopacity="1"
     objecttolerance="10"
     gridtolerance="10"
     guidetolerance="10"
     inkscape:pageopacity="0"
     inkscape:pageshadow="2"
     inkscape:window-width="1280"
     inkscape:window-height="967"
     id="namedview4"
     showgrid="true"
     inkscape:zoom="9.8848168"
     inkscape:cx="714.08739"
     inkscape:cy="272.14396"
     inkscape:window-x="0"
     inkscape:window-y="26"
     inkscape:window-maximized="1"
     inkscape:current-layer="svg2">
    <inkscape:grid
       type="xygrid"
       id="grid2987" />
  </sodipodi:namedview>
  <image
     width="994"
     height="1528"
     xlink:href="file:///home/vlada/acbf/trunk/Sample%20Comic%20Book/Source/page14.jpg"
     id="image10"
     x="0"
     y="0" />
  <path
     style="fill:none;stroke:#000000;stroke-width:1px;stroke-linecap:butt;stroke-linejoin:miter;stroke-opacity:1"
     d="m 84,63 1,-4 3,-8 6,-6 7,-3 127,0 7,7 5,10 0,10 -3,9 -9,8 -11,5 -13,3 -25,2 -49,-1 -17,-3 -13,-4 -11,-9 -4,-10 z"
     id="path2989"
     inkscape:connector-curvature="0" />
  <path
     style="fill:none;stroke:#000000;stroke-width:1px;stroke-linecap:butt;stroke-linejoin:miter;stroke-opacity:1"
     d="m 254,57 6,-6 232,0 5,5 0,54 -7,6 -229,0 -7,-5 c 0,0 0,-55 0,-54 z"
     id="path2991"
     inkscape:connector-curvature="0" />
  <path
     style="fill:none;stroke:#000000;stroke-width:1px;stroke-linecap:butt;stroke-linejoin:miter;stroke-opacity:1"
     d="m 231,398 6,-6 258,0 6,6 -1,29 -4,5 -259,0 -6,-8 z"
     id="path2993"
     inkscape:connector-curvature="0" />
  <path
     style="fill:none;stroke:#000000;stroke-width:1px;stroke-linecap:butt;stroke-linejoin:miter;stroke-opacity:1"
     d="m 653,67 2,-11 6,-8 8,-5 137,0 5,3 6,6 4,10 1,6 -1,7 -4,8 -5,6 -9,5 -12,4 -9,2 -26,3 -51,-1 -12,-3 -17,-4 -13,-6 -6,-7 -3,-8 z"
     id="path2995"
     inkscape:connector-curvature="0" />
  <path
     style="fill:none;stroke:#000000;stroke-width:1px;stroke-linecap:butt;stroke-linejoin:miter;stroke-opacity:1"
     d="m 710,280 4,-6 137,0 4,4 0,29 -6,5 -133,0 -6,-6 z"
     id="path2997"
     inkscape:connector-curvature="0" />
  <path
     style="fill:none;stroke:#000000;stroke-width:1px;stroke-linecap:butt;stroke-linejoin:miter;stroke-opacity:1"
     d="m 688,343 2,-8 4,-6 7,-5 12,-2 12,-1 11,1 12,3 7,5 3,5 2,8 -2,7 -3,6 -8,5 -22,3 -19,-2 -10,-4 -6,-7 -2,-7 z"
     id="path2999"
     inkscape:connector-curvature="0" />
  <path
     style="fill:none;stroke:#000000;stroke-width:1px;stroke-linecap:butt;stroke-linejoin:miter;stroke-opacity:1"
     d="m 55,515 1,-10 5,-9 10,-7 14,-3 25,0 13,3 9,7 6,11 -1,16 -4,9 -9,9 -14,3 -27,0 -15,-4 -10,-10 -3,-15"
     id="path3001"
     inkscape:connector-curvature="0"
     sodipodi:nodetypes="ccccccccccccccccc" />
  <path
     style="fill:none;stroke:#000000;stroke-width:1px;stroke-linecap:butt;stroke-linejoin:miter;stroke-opacity:1"
     d="m 145,546 1,-5 3,-6 3,-5 8,-5 9,-3 19,-2 24,1 7,3 9,4 6,8 1,7 0,12 -6,8 -9,6 -17,2 -12,1 -14,-1 -15,-3 -8,-4 -7,-8 z"
     id="path3003"
     inkscape:connector-curvature="0" />
  <path
     style="fill:none;stroke:#000000;stroke-width:1px;stroke-linecap:butt;stroke-linejoin:miter;stroke-opacity:1"
     d="m 241,523 2,-6 2,-8 7,-8 15,-6 8,-2 16,-1 26,0 14,1 13,3 10,5 6,7 4,7 0,16 -5,10 -8,6 -11,5 -20,3 -35,0 -13,-2 -17,-6 -8,-7 -5,-12 z"
     id="path3005"
     inkscape:connector-curvature="0" />
  <path
     style="fill:none;stroke:#000000;stroke-width:1px;stroke-linecap:butt;stroke-linejoin:miter;stroke-opacity:1"
     d="m 485,515 1,-7 6,-7 8,-5 15,-4 12,-2 64,-1 7,1 11,2 12,3 7,3 11,10 0,14 -4,6 -9,6 -15,4 -8,2 -67,1 -14,-1 -11,-2 -12,-4 -10,-7 -3,-6 z"
     id="path3007"
     inkscape:connector-curvature="0" />
  <path
     style="fill:none;stroke:#000000;stroke-width:1px;stroke-linecap:butt;stroke-linejoin:miter;stroke-opacity:1"
     d="m 495,580 1,-10 4,-8 9,-9 16,-5 10,-3 32,-3 36,1 17,3 15,5 12,7 6,9 3,14 -3,13 -6,9 -11,7 -14,5 -21,3 -52,0 -15,-2 -12,-3 -13,-5 -8,-8 -5,-8 z"
     id="path3009"
     inkscape:connector-curvature="0" />
  <path
     style="fill:none;stroke:#000000;stroke-width:1px;stroke-linecap:butt;stroke-linejoin:miter;stroke-opacity:1"
     d="m 742,506 2,-9 6,-7 12,-4 17,-2 19,2 11,4 6,6 3,10 -1,6 -3,7 -7,6 -5,2 -46,0 -3,-2 -5,-4 -4,-6 -2,-9 0,0 z"
     id="path3011"
     inkscape:connector-curvature="0" />
  <path
     style="fill:none;stroke:#000000;stroke-width:1px;stroke-linecap:butt;stroke-linejoin:miter;stroke-opacity:1"
     d="m 696,589 1,-16 5,-14 9,-14 18,-11 17,-4 29,-2 42,2 16,4 14,8 10,10 5,8 3,10 1,8 2,11 -2,11 -4,17 -9,14 -11,8 -19,7 -17,3 -50,0 -16,-3 -17,-6 -15,-12 -8,-13 -3,-11 z"
     id="path3013"
     inkscape:connector-curvature="0" />
  <path
     style="fill:none;stroke:#000000;stroke-width:1px;stroke-linecap:butt;stroke-linejoin:miter;stroke-opacity:1"
     d="m 217,1148 3,-15 4,-10 11,-10 13,-7 13,-3 33,-3 35,1 15,3 14,5 11,8 7,7 4,9 2,13 -1,12 -4,13 -7,9 -7,5 -9,4 -15,5 -11,1 -57,0 -17,-3 -15,-6 -10,-7 -8,-12 -3,-12 z"
     id="path3015"
     inkscape:connector-curvature="0" />
  <path
     style="fill:none;stroke:#000000;stroke-width:1px;stroke-linecap:butt;stroke-linejoin:miter;stroke-opacity:1"
     d="m 89,1431 3,-6 378,0 4,4 0,27 -6,7 -373,0 -6,-6 0,-26 z"
     id="path3017"
     inkscape:connector-curvature="0" />
  <path
     style="fill:none;stroke:#000000;stroke-width:1px;stroke-linecap:butt;stroke-linejoin:miter;stroke-opacity:1"
     d="m 629,1101 1,-5 5,-9 10,-5 15,-3 18,-2 20,2 14,3 10,5 5,7 1,8 -1,8 -6,7 -9,5 -15,3 -19,1 -18,-1 -10,-2 -9,-3 -8,-6 -4,-9 z"
     id="path3019"
     inkscape:connector-curvature="0" />
  <path
     style="fill:none;stroke:#000000;stroke-width:1px;stroke-linecap:butt;stroke-linejoin:miter;stroke-opacity:1"
     d="m 712,1144 1,-6 3,-6 7,-5 8,-2 14,0 16,0 8,3 6,7 3,8 -2,10 -4,6 -6,4 -13,3 -24,-1 -10,-5 -6,-6 -1,-5 z"
     id="path3021"
     inkscape:connector-curvature="0" />
  <path
     style="fill:none;stroke:#000000;stroke-width:1px;stroke-linecap:butt;stroke-linejoin:miter;stroke-opacity:1"
     d="m 665,1190 1,-8 5,-7 12,-5 15,-2 20,2 10,5 5,9 0,10 -1,8 -7,7 -9,3 -32,1 -8,-3 -6,-5 -4,-7 z"
     id="path3023"
     inkscape:connector-curvature="0" />
  <path
     style="fill:none;stroke:#000000;stroke-width:1px;stroke-linecap:butt;stroke-linejoin:miter;stroke-opacity:1"
     d="m 686,1245 4,-10 9,-6 15,-3 27,0 11,1 11,5 6,9 0,10 -9,10 -11,4 -30,1 -14,-2 -14,-6 z"
     id="path3025"
     inkscape:connector-curvature="0"
     sodipodi:nodetypes="ccccccccccccccc" />
  <path
     style="fill:none;stroke:#000000;stroke-width:1px;stroke-linecap:butt;stroke-linejoin:miter;stroke-opacity:1"
     d="m 653,1295 2,-8 6,-7 8,-3 13,-2 15,0 14,1 10,2 9,8 3,8 -2,8 -4,7 -10,5 -7,1 -19,2 -17,-1 -10,-4 -8,-5 -2,-7 z"
     id="path3027"
     inkscape:connector-curvature="0" />
</svg>
