<?xml version="1.0" encoding="UTF-8" standalone="no"?>
<!-- Created with Inkscape (http://www.inkscape.org/) -->

<svg
   xmlns:dc="http://purl.org/dc/elements/1.1/"
   xmlns:cc="http://creativecommons.org/ns#"
   xmlns:rdf="http://www.w3.org/1999/02/22-rdf-syntax-ns#"
   xmlns:svg="http://www.w3.org/2000/svg"
   xmlns="http://www.w3.org/2000/svg"
   xmlns:xlink="http://www.w3.org/1999/xlink"
   xmlns:sodipodi="http://sodipodi.sourceforge.net/DTD/sodipodi-0.dtd"
   xmlns:inkscape="http://www.inkscape.org/namespaces/inkscape"
   id="svg2"
   version="1.1"
   inkscape:version="0.48.1 "
   width="994"
   height="1528"
   sodipodi:docname="page11.jpg">
  <metadata
     id="metadata8">
    <rdf:RDF>
      <cc:Work
         rdf:about="">
        <dc:format>image/svg+xml</dc:format>
        <dc:type
           rdf:resource="http://purl.org/dc/dcmitype/StillImage" />
        <dc:title></dc:title>
      </cc:Work>
    </rdf:RDF>
  </metadata>
  <defs
     id="defs6" />
  <sodipodi:namedview
     pagecolor="#ffffff"
     bordercolor="#666666"
     borderopacity="1"
     objecttolerance="10"
     gridtolerance="10"
     guidetolerance="10"
     inkscape:pageopacity="0"
     inkscape:pageshadow="2"
     inkscape:window-width="1280"
     inkscape:window-height="744"
     id="namedview4"
     showgrid="true"
     inkscape:zoom="0.48683006"
     inkscape:cx="487.89286"
     inkscape:cy="1085.1475"
     inkscape:window-x="-4"
     inkscape:window-y="-4"
     inkscape:window-maximized="1"
     inkscape:current-layer="svg2">
    <inkscape:grid
       type="xygrid"
       id="grid2987" />
  </sodipodi:namedview>
  <image
     width="994"
     height="1528"
     xlink:href="page11.jpg"
     id="image10"
     x="0"
     y="0" />
  <path
     style="fill:none;stroke:#000000;stroke-width:1px;stroke-linecap:butt;stroke-linejoin:miter;stroke-opacity:1"
     d="m 123,69 0,-13 3,-8 7,-6 13,-6 17,-4 26,-1 36,1 18,3 15,5 8,7 5,8 0,15 -8,12 -11,6 -11,3 -21,3 -25,2 -22,-2 -21,-3 -16,-6 -10,-9 z"
     id="path2989"
     inkscape:connector-curvature="0" />
  <path
     style="fill:none;stroke:#000000;stroke-width:1px;stroke-linecap:butt;stroke-linejoin:miter;stroke-opacity:1"
     d="m 48,496 6,-6 285,0 6,3 0,45 -3,3 -288,0 -6,-6 z"
     id="path2991"
     inkscape:connector-curvature="0" />
  <path
     style="fill:none;stroke:#000000;stroke-width:1px;stroke-linecap:butt;stroke-linejoin:miter;stroke-opacity:1"
     d="m 610,96 0,-15 5,-7 8,-6 12,-5 19,-3 21,-1 26,1 18,3 12,4 8,7 5,9 1,7 -2,9 -5,7 -8,5 -13,5 -10,1 -19,1 -37,0 -5,-1 -9,-2 -10,-3 -6,-3 -7,-6 z"
     id="path2993"
     inkscape:connector-curvature="0" />
  <path
     style="fill:none;stroke:#000000;stroke-width:1px;stroke-linecap:butt;stroke-linejoin:miter;stroke-opacity:1"
     d="m 600,157 3,-7 5,-8 9,-6 12,-5 15,-2 22,-1 19,1 12,2 11,3 10,5 6,6 5,10 0,21 -4,9 -8,8 -12,5 -15,3 -25,1 -25,-1 -10,-2 -9,-3 -9,-4 -7,-8 -3,-7 -2,-7 z"
     id="path2995"
     inkscape:connector-curvature="0" />
  <path
     style="fill:none;stroke:#000000;stroke-width:1px;stroke-linecap:butt;stroke-linejoin:miter;stroke-opacity:1"
     d="m 622,332 0,-11 3,-8 6,-5 8,-3 9,-2 11,-1 13,1 9,2 10,5 5,6 1,10 0,11 -7,6 -10,5 -8,2 -25,0 -8,-2 -6,-2 -6,-4 z"
     id="path2997"
     inkscape:connector-curvature="0" />
  <path
     style="fill:none;stroke:#000000;stroke-width:1px;stroke-linecap:butt;stroke-linejoin:miter;stroke-opacity:1"
     d="m 186,587 0,-10 5,-6 9,-3 24,0 6,2 5,4 3,7 -3,9 -2,2 -9,3 -14,3 -10,-2 -8,-2 -4,-3 z"
     id="path2999"
     inkscape:connector-curvature="0" />
  <path
     style="fill:none;stroke:#000000;stroke-width:1px;stroke-linecap:butt;stroke-linejoin:miter;stroke-opacity:1"
     d="m 193,623 3,-7 4,-7 7,-8 6,-3 23,-6 22,1 13,4 12,6 8,11 3,9 1,9 0,16 -2,13 -6,11 -9,7 -12,6 -39,0 -9,-2 -9,-4 -9,-8 -5,-10 -2,-11 -1,-6 0,-12 z"
     id="path3001"
     inkscape:connector-curvature="0" />
  <path
     style="fill:none;stroke:#000000;stroke-width:1px;stroke-linecap:butt;stroke-linejoin:miter;stroke-opacity:1"
     d="m 199,778 0,-10 3,-6 5,-5 7,-3 8,-2 26,0 9,2 9,5 5,8 0,13 -6,7 -12,6 -35,0 -9,-3 -6,-5 z"
     id="path3003"
     inkscape:connector-curvature="0" />
  <path
     style="fill:none;stroke:#000000;stroke-width:1px;stroke-linecap:butt;stroke-linejoin:miter;stroke-opacity:1"
     d="m 525,454 6,-6 204,0 6,6 0,18 -3,6 -210,0 -3,-6 z"
     id="path3005"
     inkscape:connector-curvature="0" />
  <path
     style="fill:none;stroke:#000000;stroke-width:1px;stroke-linecap:butt;stroke-linejoin:miter;stroke-opacity:1"
     d="m 601,516 0,-13 5,-8 9,-4 12,-3 34,0 12,4 9,8 2,9 -2,10 -6,6 -13,4 -16,1 -21,0 -11,-3 -10,-5 z"
     id="path3007"
     inkscape:connector-curvature="0" />
  <path
     style="fill:none;stroke:#000000;stroke-width:1px;stroke-linecap:butt;stroke-linejoin:miter;stroke-opacity:1"
     d="m 654,544 6,-3 162,0 3,3 0,30 -6,3 -159,0 -6,-6 z"
     id="path3009"
     inkscape:connector-curvature="0" />
  <path
     style="fill:none;stroke:#000000;stroke-width:1px;stroke-linecap:butt;stroke-linejoin:miter;stroke-opacity:1"
     d="m 675,632 0,-8 3,-5 8,-5 12,-2 15,-1 18,1 8,1 9,3 7,5 0,12 -5,7 -13,4 -12,2 -21,0 -13,-2 -9,-3 -5,-4 z"
     id="path3011"
     inkscape:connector-curvature="0" />
  <path
     style="fill:none;stroke:#000000;stroke-width:1px;stroke-linecap:butt;stroke-linejoin:miter;stroke-opacity:1"
     d="m 660,676 4,-7 7,-5 18,-4 16,-1 21,1 14,3 5,2 6,5 4,9 0,8 -5,8 -11,6 -15,3 -18,1 -17,-1 -14,-3 -9,-4 -6,-8 z"
     id="path3013"
     inkscape:connector-curvature="0" />
  <path
     style="fill:none;stroke:#000000;stroke-width:1px;stroke-linecap:butt;stroke-linejoin:miter;stroke-opacity:1"
     d="m 638,762 1,-11 5,-10 8,-8 14,-6 17,-3 49,0 14,5 11,6 8,9 4,12 0,16 -4,10 -9,9 -14,6 -15,3 -25,2 -23,-2 -19,-4 -16,-12 -5,-10 z"
     id="path3015"
     inkscape:connector-curvature="0" />
  <path
     style="fill:none;stroke:#000000;stroke-width:1px;stroke-linecap:butt;stroke-linejoin:miter;stroke-opacity:1"
     d="m 222,877 0,-5 2,-6 7,-7 12,-4 12,-2 23,0 13,2 11,3 8,6 2,4 1,8 -3,8 -6,6 -7,3 -15,3 -31,0 -5,-1 -8,-2 -7,-3 -6,-5 z"
     id="path3017"
     inkscape:connector-curvature="0" />
</svg>
