<?xml version="1.0" encoding="UTF-8" standalone="no"?>
<!-- Created with Inkscape (http://www.inkscape.org/) -->

<svg
   xmlns:dc="http://purl.org/dc/elements/1.1/"
   xmlns:cc="http://creativecommons.org/ns#"
   xmlns:rdf="http://www.w3.org/1999/02/22-rdf-syntax-ns#"
   xmlns:svg="http://www.w3.org/2000/svg"
   xmlns="http://www.w3.org/2000/svg"
   xmlns:xlink="http://www.w3.org/1999/xlink"
   xmlns:sodipodi="http://sodipodi.sourceforge.net/DTD/sodipodi-0.dtd"
   xmlns:inkscape="http://www.inkscape.org/namespaces/inkscape"
   id="svg2"
   version="1.1"
   inkscape:version="0.48.2 r9819"
   width="994"
   height="1528"
   sodipodi:docname="page13.jpg">
  <metadata
     id="metadata8">
    <rdf:RDF>
      <cc:Work
         rdf:about="">
        <dc:format>image/svg+xml</dc:format>
        <dc:type
           rdf:resource="http://purl.org/dc/dcmitype/StillImage" />
        <dc:title></dc:title>
      </cc:Work>
    </rdf:RDF>
  </metadata>
  <defs
     id="defs6" />
  <sodipodi:namedview
     pagecolor="#ffffff"
     bordercolor="#666666"
     borderopacity="1"
     objecttolerance="10"
     gridtolerance="10"
     guidetolerance="10"
     inkscape:pageopacity="0"
     inkscape:pageshadow="2"
     inkscape:window-width="1280"
     inkscape:window-height="967"
     id="namedview4"
     showgrid="true"
     inkscape:zoom="1.2356021"
     inkscape:cx="492.24353"
     inkscape:cy="142.59763"
     inkscape:window-x="0"
     inkscape:window-y="26"
     inkscape:window-maximized="1"
     inkscape:current-layer="svg2">
    <inkscape:grid
       type="xygrid"
       id="grid2987" />
  </sodipodi:namedview>
  <image
     width="994"
     height="1528"
     xlink:href="file:///home/vlada/acbf/trunk/Sample%20Comic%20Book/Source/page13.jpg"
     id="image10"
     x="0"
     y="0" />
  <path
     style="fill:none;stroke:#000000;stroke-width:1px;stroke-linecap:butt;stroke-linejoin:miter;stroke-opacity:1"
     d="m 152,59 4,-4 197,0 5,4 0,64 -5,5 -197,0 -4,-7 z"
     id="path2989"
     inkscape:connector-curvature="0" />
  <path
     style="fill:none;stroke:#000000;stroke-width:1px;stroke-linecap:butt;stroke-linejoin:miter;stroke-opacity:1"
     d="m 402,67 7,-8 151,0 7,5 0,79 -6,3 -152,0 -6,-8 z"
     id="path2991"
     inkscape:connector-curvature="0" />
  <path
     style="fill:none;stroke:#000000;stroke-width:1px;stroke-linecap:butt;stroke-linejoin:miter;stroke-opacity:1"
     d="m 424,222 6,-5 154,0 5,6 0,38 -5,6 -154,0 -6,-6 z"
     id="path2993"
     inkscape:connector-curvature="0" />
  <path
     style="fill:none;stroke:#000000;stroke-width:1px;stroke-linecap:butt;stroke-linejoin:miter;stroke-opacity:1"
     d="m 328,588 6,-6 161,0 4,5 0,42 -6,4 -159,0 -6,-6 z"
     id="path2995"
     inkscape:connector-curvature="0" />
  <path
     style="fill:none;stroke:#000000;stroke-width:1px;stroke-linecap:butt;stroke-linejoin:miter;stroke-opacity:1"
     d="m 203,694 4,-5 170,0 4,6 0,27 -4,5 -169,0 -5,-7 0,-26 z"
     id="path2997"
     inkscape:connector-curvature="0" />
  <path
     style="fill:none;stroke:#000000;stroke-width:1px;stroke-linecap:butt;stroke-linejoin:miter;stroke-opacity:1"
     d="m 452,976 5,-7 162,0 4,5 0,32 -6,3 -159,0 -6,-8 z"
     id="path2999"
     inkscape:connector-curvature="0" />
  <path
     style="fill:none;stroke:#000000;stroke-width:1px;stroke-linecap:butt;stroke-linejoin:miter;stroke-opacity:1"
     d="m 292,1101 2,-8 7,-8 10,-4 17,-3 20,-2 26,2 17,3 10,4 8,9 1,7 -2,9 -6,7 -10,4 -15,3 -50,0 -12,-2 -12,-4 -9,-9 z"
     id="path3001"
     inkscape:connector-curvature="0" />
  <path
     style="fill:none;stroke:#000000;stroke-width:1px;stroke-linecap:butt;stroke-linejoin:miter;stroke-opacity:1"
     d="m 256,1400 5,-5 200,0 4,5 0,40 -4,5 -201,0 -5,-6 z"
     id="path3003"
     inkscape:connector-curvature="0" />
  <path
     style="fill:none;stroke:#000000;stroke-width:1px;stroke-linecap:butt;stroke-linejoin:miter;stroke-opacity:1"
     d="m 503,1066 2,-7 4,-5 9,-6 12,-3 11,-2 21,-1 28,1 11,2 11,3 8,5 5,6 2,8 -3,11 -11,6 -21,8 -40,0 -17,-1 -9,-2 -12,-4 -7,-6 -3,-8 z"
     id="path3005"
     inkscape:connector-curvature="0" />
  <path
     style="fill:none;stroke:#000000;stroke-width:1px;stroke-linecap:butt;stroke-linejoin:miter;stroke-opacity:1"
     d="m 592,1104 1,-8 5,-5 26,-9 24,-1 15,1 7,2 10,5 5,5 2,5 0,9 -5,8 -8,5 -13,3 -23,1 -20,-1 -13,-3 -9,-6 -4,-7 z"
     id="path3007"
     inkscape:connector-curvature="0" />
  <path
     style="fill:none;stroke:#000000;stroke-width:1px;stroke-linecap:butt;stroke-linejoin:miter;stroke-opacity:1"
     d="m 704,1092 2,-11 4,-11 8,-9 12,-6 12,-3 9,-1 19,-2 24,2 16,3 14,5 10,10 4,8 3,16 -3,16 -8,13 -9,6 -13,5 -24,3 -56,-6 -16,-11 -7,-14 z"
     id="path3009"
     inkscape:connector-curvature="0" />
  <path
     style="fill:none;stroke:#000000;stroke-width:1px;stroke-linecap:butt;stroke-linejoin:miter;stroke-opacity:1"
     d="m 728,1133 12,0 36,5 3,7 2,10 -3,12 -9,8 -14,3 -22,0 -8,-3 -7,-6 -4,-8 0,-13 4,-9 z"
     id="path3011"
     inkscape:connector-curvature="0" />
</svg>
