<?xml version="1.0" encoding="UTF-8" standalone="no"?>
<!-- Created with Inkscape (http://www.inkscape.org/) -->

<svg
   xmlns:dc="http://purl.org/dc/elements/1.1/"
   xmlns:cc="http://creativecommons.org/ns#"
   xmlns:rdf="http://www.w3.org/1999/02/22-rdf-syntax-ns#"
   xmlns:svg="http://www.w3.org/2000/svg"
   xmlns="http://www.w3.org/2000/svg"
   xmlns:xlink="http://www.w3.org/1999/xlink"
   xmlns:sodipodi="http://sodipodi.sourceforge.net/DTD/sodipodi-0.dtd"
   xmlns:inkscape="http://www.inkscape.org/namespaces/inkscape"
   id="svg2"
   version="1.1"
   inkscape:version="0.48.2 r9819"
   width="994"
   height="1528"
   sodipodi:docname="page6.svg">
  <metadata
     id="metadata8">
    <rdf:RDF>
      <cc:Work
         rdf:about="">
        <dc:format>image/svg+xml</dc:format>
        <dc:type
           rdf:resource="http://purl.org/dc/dcmitype/StillImage" />
        <dc:title />
      </cc:Work>
    </rdf:RDF>
  </metadata>
  <defs
     id="defs6" />
  <sodipodi:namedview
     pagecolor="#ffffff"
     bordercolor="#666666"
     borderopacity="1"
     objecttolerance="10"
     gridtolerance="10"
     guidetolerance="10"
     inkscape:pageopacity="0"
     inkscape:pageshadow="2"
     inkscape:window-width="1600"
     inkscape:window-height="838"
     id="namedview4"
     showgrid="true"
     inkscape:zoom="0.43685131"
     inkscape:cx="1189.1487"
     inkscape:cy="1040.7604"
     inkscape:window-x="0"
     inkscape:window-y="28"
     inkscape:window-maximized="1"
     inkscape:current-layer="svg2">
    <inkscape:grid
       type="xygrid"
       id="grid2987" />
  </sodipodi:namedview>
  <image
     width="994"
     height="1528"
     xlink:href="page6.jpg"
     id="image10"
     x="0"
     y="0" />
  <path
     style="fill:none;stroke:#000000;stroke-width:1px;stroke-linecap:butt;stroke-linejoin:miter;stroke-opacity:1"
     d="m 40,33 415,0 0,475 -415,0 z"
     id="path2989"
     inkscape:connector-curvature="0" />
  <path
     style="fill:none;stroke:#000000;stroke-width:1px;stroke-linecap:butt;stroke-linejoin:miter;stroke-opacity:1"
     d="m 465,33 490,0 0,475 -490,0 z"
     id="path2991"
     inkscape:connector-curvature="0" />
  <path
     style="fill:none;stroke:#000000;stroke-width:1px;stroke-linecap:butt;stroke-linejoin:miter;stroke-opacity:1"
     d="m 40,723 5,-5 35,-10 20,-35 5,-5 15,0 10,-5 30,-5 0,-15 10,-20 15,-10 20,0 30,15 -20,-25 -5,-15 0,-15 5,-10 20,-15 25,-5 55,0 25,5 20,15 5,15 0,15 -10,20 -20,10 -35,5 -20,0 -50,40 25,25 15,30 50,-20 20,-15 20,-5 25,5 15,10 0,10 -5,5 10,5 -15,10 -10,10 10,15 15,5 10,15 -5,15 10,5 10,20 5,15 5,10 5,5 0,10 -30,35 -5,15 -5,5 0,10 10,15 -5,10 -5,5 5,10 5,10 0,10 -5,15 -60,0 -35,-10 -5,-10 0,-15 5,-15 -15,-10 -10,15 -15,0 -10,-10 -35,15 0,20 -5,10 -15,10 -35,0 -5,-5 0,-15 -10,5 -15,0 -10,-5 -5,-20 0,-20 -15,-25 -5,-15 0,-75 -85,-30 z"
     id="path2993"
     inkscape:connector-curvature="0" />
  <path
     style="fill:none;stroke:#000000;stroke-width:1px;stroke-linecap:butt;stroke-linejoin:miter;stroke-opacity:1"
     d="m 445,518 510,0 0,475 -510,0 z"
     id="path2995"
     inkscape:connector-curvature="0" />
  <path
     style="fill:none;stroke:#000000;stroke-width:1px;stroke-linecap:butt;stroke-linejoin:miter;stroke-opacity:1"
     d="m 35,1003 540,0 0,15 15,0 5,5 0,25 0,10 0,5 -10,5 -10,0 0,415 -540,0 z"
     id="path3016"
     inkscape:connector-curvature="0"
     sodipodi:nodetypes="ccccccccccccc" />
  <path
     style="fill:none;stroke:#000000;stroke-width:1px;stroke-linecap:butt;stroke-linejoin:miter;stroke-opacity:1"
     d="m 595,1083 5,-15 25,-25 20,-5 255,0 15,10 15,10 10,15 5,75 0,45 -5,80 0,20 15,35 0,20 -5,15 -15,10 10,80 10,10 0,15 -10,10 -15,0 -15,-10 -20,-5 -275,0 -5,10 -10,5 -10,0 -10,-10 0,-15 10,-15 5,-80 -15,-10 0,-20 0,-15 20,-35 -10,-35 0,-60 z"
     id="path3018"
     inkscape:connector-curvature="0" />
</svg>
