<?xml version="1.0" encoding="UTF-8" standalone="no"?>
<!-- Created with Inkscape (http://www.inkscape.org/) -->

<svg
   xmlns:dc="http://purl.org/dc/elements/1.1/"
   xmlns:cc="http://creativecommons.org/ns#"
   xmlns:rdf="http://www.w3.org/1999/02/22-rdf-syntax-ns#"
   xmlns:svg="http://www.w3.org/2000/svg"
   xmlns="http://www.w3.org/2000/svg"
   xmlns:xlink="http://www.w3.org/1999/xlink"
   xmlns:sodipodi="http://sodipodi.sourceforge.net/DTD/sodipodi-0.dtd"
   xmlns:inkscape="http://www.inkscape.org/namespaces/inkscape"
   id="svg2"
   version="1.1"
   inkscape:version="0.48.1 "
   width="994"
   height="1528"
   sodipodi:docname="page19.jpg">
  <metadata
     id="metadata8">
    <rdf:RDF>
      <cc:Work
         rdf:about="">
        <dc:format>image/svg+xml</dc:format>
        <dc:type
           rdf:resource="http://purl.org/dc/dcmitype/StillImage" />
        <dc:title></dc:title>
      </cc:Work>
    </rdf:RDF>
  </metadata>
  <defs
     id="defs6" />
  <sodipodi:namedview
     pagecolor="#ffffff"
     bordercolor="#666666"
     borderopacity="1"
     objecttolerance="10"
     gridtolerance="10"
     guidetolerance="10"
     inkscape:pageopacity="0"
     inkscape:pageshadow="2"
     inkscape:window-width="1280"
     inkscape:window-height="744"
     id="namedview4"
     showgrid="true"
     inkscape:zoom="1.3769633"
     inkscape:cx="409.27726"
     inkscape:cy="366.70537"
     inkscape:window-x="-4"
     inkscape:window-y="-4"
     inkscape:window-maximized="1"
     inkscape:current-layer="svg2">
    <inkscape:grid
       type="xygrid"
       id="grid2987" />
  </sodipodi:namedview>
  <image
     width="994"
     height="1528"
     xlink:href="page19.jpg"
     id="image10"
     x="0"
     y="0" />
  <path
     style="fill:none;stroke:#000000;stroke-width:1px;stroke-linecap:butt;stroke-linejoin:miter;stroke-opacity:1"
     d="m 55,50 6,-6 206,0 6,4 0,57 -6,4 -207,0 -5,-6 z"
     id="path2989"
     inkscape:connector-curvature="0" />
  <path
     style="fill:none;stroke:#000000;stroke-width:1px;stroke-linecap:butt;stroke-linejoin:miter;stroke-opacity:1"
     d="m 139,138 1,-7 4,-6 9,-4 25,0 8,3 5,6 1,8 -1,8 -5,6 -7,5 -23,-1 -7,-2 -7,-5 -2,-4 z"
     id="path2991"
     inkscape:connector-curvature="0" />
  <path
     style="fill:none;stroke:#000000;stroke-width:1px;stroke-linecap:butt;stroke-linejoin:miter;stroke-opacity:1"
     d="m 290,106 2,-14 3,-9 8,-11 12,-8 14,-4 20,-3 20,-2 20,2 19,3 14,4 11,7 7,8 6,15 0,18 -3,12 -8,12 -9,6 -15,6 -6,1 -14,3 -49,-1 -22,-5 -14,-7 -10,-11 -4,-13 z"
     id="path2993"
     inkscape:connector-curvature="0" />
  <path
     style="fill:none;stroke:#000000;stroke-width:1px;stroke-linecap:butt;stroke-linejoin:miter;stroke-opacity:1"
     d="m 614,102 5,-23 10,-15 22,-10 20,-4 33,0 19,4 18,7 9,9 6,12 3,22 -3,17 -4,9 -9,10 -15,8 -14,3 -15,1 -27,0 -12,-1 -18,-5 -15,-9 -7,-10 -3,-8 z"
     id="path2995"
     inkscape:connector-curvature="0" />
  <path
     style="fill:none;stroke:#000000;stroke-width:1px;stroke-linecap:butt;stroke-linejoin:miter;stroke-opacity:1"
     d="m 799,52 5,-7 135,0 5,6 0,39 -5,6 -135,0 -4,-6 z"
     id="path2997"
     inkscape:connector-curvature="0" />
  <path
     style="fill:none;stroke:#000000;stroke-width:1px;stroke-linecap:butt;stroke-linejoin:miter;stroke-opacity:1"
     d="m 236,438 2,-5 5,-7 8,-3 8,-2 16,-1 16,1 8,2 7,3 5,5 1,7 -1,8 -5,5 -6,3 -6,1 -12,2 -9,0 -17,-1 -7,-2 -6,-3 -4,-4 -2,-4 z"
     id="path2999"
     inkscape:connector-curvature="0" />
  <path
     style="fill:none;stroke:#000000;stroke-width:1px;stroke-linecap:butt;stroke-linejoin:miter;stroke-opacity:1"
     d="m 95,682 6,-5 210,0 5,6 0,39 -7,6 -209,0 -5,-7 z"
     id="path3001"
     inkscape:connector-curvature="0" />
  <path
     style="fill:none;stroke:#000000;stroke-width:1px;stroke-linecap:butt;stroke-linejoin:miter;stroke-opacity:1"
     d="m 371,720 1,-11 6,-6 56,0 6,6 1,11 -1,10 -4,5 -60,0 -4,-6 z"
     id="path3003"
     inkscape:connector-curvature="0" />
  <path
     style="fill:none;stroke:#000000;stroke-width:1px;stroke-linecap:butt;stroke-linejoin:miter;stroke-opacity:1"
     d="m 695,518 2,-6 6,-8 9,-3 18,-2 17,2 9,3 5,4 3,10 -3,9 -6,5 -9,3 -8,1 -10,0 -15,-1 -6,-2 -6,-3 -4,-7 z"
     id="path3005"
     inkscape:connector-curvature="0" />
  <path
     style="fill:none;stroke:#000000;stroke-width:1px;stroke-linecap:butt;stroke-linejoin:miter;stroke-opacity:1"
     d="m 125,802 2,-14 5,-4 102,0 7,5 0,24 -6,5 -106,0 -3,-5 z"
     id="path3007"
     inkscape:connector-curvature="0" />
  <path
     style="fill:none;stroke:#000000;stroke-width:1px;stroke-linecap:butt;stroke-linejoin:miter;stroke-opacity:1"
     d="m 569,972 2,-9 6,-8 12,-4 15,-2 15,2 11,3 6,4 3,6 2,8 -2,8 -2,6 -5,3 -6,3 -8,2 -15,1 -12,-1 -8,-2 -8,-4 -4,-6 z"
     id="path3009"
     inkscape:connector-curvature="0" />
  <path
     style="fill:none;stroke:#000000;stroke-width:1px;stroke-linecap:butt;stroke-linejoin:miter;stroke-opacity:1"
     d="m 682,983 1,-11 5,-5 105,0 6,7 0,17 -5,6 -107,0 -4,-4 z"
     id="path3011"
     inkscape:connector-curvature="0" />
  <path
     style="fill:none;stroke:#000000;stroke-width:1px;stroke-linecap:butt;stroke-linejoin:miter;stroke-opacity:1"
     d="m 63,1159 5,-6 340,0 6,5 0,33 -5,4 -341,0 -5,-7 z"
     id="path3013"
     inkscape:connector-curvature="0" />
  <path
     style="fill:none;stroke:#000000;stroke-width:1px;stroke-linecap:butt;stroke-linejoin:miter;stroke-opacity:1"
     d="m 182,1234 2,-10 4,-9 8,-7 13,-5 15,-3 24,-2 29,2 15,3 11,4 9,7 5,7 2,13 -1,10 -3,8 -6,7 -6,5 -7,3 -12,3 -9,1 -51,0 -9,-1 -14,-5 -10,-6 -6,-9 -2,-5 z"
     id="path3015"
     inkscape:connector-curvature="0" />
  <path
     style="fill:none;stroke:#000000;stroke-width:1px;stroke-linecap:butt;stroke-linejoin:miter;stroke-opacity:1"
     d="m 688,1395 1,-11 4,-11 10,-10 16,-7 15,-3 35,-2 25,2 15,3 10,4 9,6 7,8 4,15 0,9 -2,9 -3,7 -5,7 -9,6 -11,5 -74,4 -17,-4 -14,-6 -9,-9 -6,-14 -1,-8 z"
     id="path3017"
     inkscape:connector-curvature="0" />
  <path
     style="fill:none;stroke:#000000;stroke-width:1px;stroke-linecap:butt;stroke-linejoin:miter;stroke-opacity:1"
     d="m 722,1456 2,-8 5,-6 6,-4 74,-4 13,3 9,5 4,8 2,6 -2,9 -8,7 -11,5 -10,2 -20,1 -21,0 -16,-2 -14,-4 -8,-6 -4,-6 z"
     id="path3019"
     inkscape:connector-curvature="0" />
</svg>
