<?xml version="1.0" encoding="UTF-8" standalone="no"?>
<!-- Created with Inkscape (http://www.inkscape.org/) -->

<svg
   xmlns:dc="http://purl.org/dc/elements/1.1/"
   xmlns:cc="http://creativecommons.org/ns#"
   xmlns:rdf="http://www.w3.org/1999/02/22-rdf-syntax-ns#"
   xmlns:svg="http://www.w3.org/2000/svg"
   xmlns="http://www.w3.org/2000/svg"
   xmlns:xlink="http://www.w3.org/1999/xlink"
   xmlns:sodipodi="http://sodipodi.sourceforge.net/DTD/sodipodi-0.dtd"
   xmlns:inkscape="http://www.inkscape.org/namespaces/inkscape"
   id="svg2"
   version="1.1"
   inkscape:version="0.48.2 r9819"
   width="994"
   height="1528"
   sodipodi:docname="page8.jpg">
  <metadata
     id="metadata8">
    <rdf:RDF>
      <cc:Work
         rdf:about="">
        <dc:format>image/svg+xml</dc:format>
        <dc:type
           rdf:resource="http://purl.org/dc/dcmitype/StillImage" />
        <dc:title></dc:title>
      </cc:Work>
    </rdf:RDF>
  </metadata>
  <defs
     id="defs6" />
  <sodipodi:namedview
     pagecolor="#ffffff"
     bordercolor="#666666"
     borderopacity="1"
     objecttolerance="10"
     gridtolerance="10"
     guidetolerance="10"
     inkscape:pageopacity="0"
     inkscape:pageshadow="2"
     inkscape:window-width="1280"
     inkscape:window-height="967"
     id="namedview4"
     showgrid="true"
     inkscape:zoom="0.87370262"
     inkscape:cx="652.45341"
     inkscape:cy="383.4637"
     inkscape:window-x="0"
     inkscape:window-y="26"
     inkscape:window-maximized="1"
     inkscape:current-layer="svg2">
    <inkscape:grid
       type="xygrid"
       id="grid2987" />
  </sodipodi:namedview>
  <image
     width="994"
     height="1528"
     xlink:href="file:///home/vlada/acbf/trunk/Sample%20Comic%20Book/Source/page8.jpg"
     id="image10"
     x="0"
     y="0" />
  <path
     style="fill:none;stroke:#000000;stroke-width:1px;stroke-linecap:butt;stroke-linejoin:miter;stroke-opacity:1"
     d="m 53,62 6,-6 120,0 5,7 1,1 0,33 -8,8 -117,0 -7,-8 z"
     id="path2989"
     inkscape:connector-curvature="0" />
  <path
     style="fill:none;stroke:#000000;stroke-width:1px;stroke-linecap:butt;stroke-linejoin:miter;stroke-opacity:1"
     d="m 131,155 3,-11 8,-12 10,-7 14,-6 15,-3 18,-1 14,1 11,1 16,5 11,6 8,8 5,10 3,12 2,13 -2,14 -3,12 -4,9 -7,8 -11,7 -16,6 -46,0 -10,-2 -10,-3 -10,-5 -11,-9 -5,-10 -3,-10 -2,-10 z"
     id="path2991"
     inkscape:connector-curvature="0" />
  <path
     style="fill:none;stroke:#000000;stroke-width:1px;stroke-linecap:butt;stroke-linejoin:miter;stroke-opacity:1"
     d="m 330,412 0,-12 3,-6 6,-7 7,-3 9,-3 10,-3 11,0 16,-2 20,2 13,1 8,2 11,4 9,7 3,7 2,7 -3,12 -9,9 -11,4 -16,3 -20,2 -24,0 -7,-2 -9,-1 -7,-2 -8,-3 -7,-4 -5,-7 z"
     id="path2993"
     inkscape:connector-curvature="0" />
  <path
     style="fill:none;stroke:#000000;stroke-width:1px;stroke-linecap:butt;stroke-linejoin:miter;stroke-opacity:1"
     d="m 656,93 2,-8 4,-9 8,-9 14,-8 14,-5 18,-3 24,-1 22,0 22,1 12,2 11,3 11,4 10,6 8,8 4,7 3,10 2,10 -2,11 -3,10 -4,8 -11,9 -12,6 -9,3 -15,3 -13,2 -51,0 -15,-2 -19,-4 -14,-6 -12,-9 -6,-11 -3,-11 z"
     id="path2995"
     inkscape:connector-curvature="0" />
  <path
     style="fill:none;stroke:#000000;stroke-width:1px;stroke-linecap:butt;stroke-linejoin:miter;stroke-opacity:1"
     d="m 685,383 6,-7 118,0 7,8 0,41 -7,8 -118,0 -6,-7 z"
     id="path2997"
     inkscape:connector-curvature="0" />
  <path
     style="fill:none;stroke:#000000;stroke-width:1px;stroke-linecap:butt;stroke-linejoin:miter;stroke-opacity:1"
     d="m 77,993 3,-10 11,-11 17,-6 22,-3 46,0 12,1 13,3 15,7 6,6 5,11 0,14 -3,8 -5,6 -10,6 -14,5 -22,3 -42,0 -15,-2 -14,-3 -12,-5 -7,-6 -5,-8 -1,-6 z"
     id="path2999"
     inkscape:connector-curvature="0" />
  <path
     style="fill:none;stroke:#000000;stroke-width:1px;stroke-linecap:butt;stroke-linejoin:miter;stroke-opacity:1"
     d="m 428,498 7,-9 141,0 6,8 0,59 -7,7 -141,0 -6,-9 z"
     id="path3001"
     inkscape:connector-curvature="0"
     sodipodi:nodetypes="ccccccccc" />
  <path
     style="fill:none;stroke:#000000;stroke-width:1px;stroke-linecap:butt;stroke-linejoin:miter;stroke-opacity:1"
     d="m 416,982 6,-6 170,0 4,7 0,49 -6,4 -168,0 -6,-5 z"
     id="path3003"
     inkscape:connector-curvature="0" />
  <path
     style="fill:none;stroke:#000000;stroke-width:1px;stroke-linecap:butt;stroke-linejoin:miter;stroke-opacity:1"
     d="m 714,527 -11,-3 -9,-6 -3,-6 -2,-6 2,-9 5,-8 8,-5 13,-3 16,-1 18,1 9,2 8,3 7,6 3,6 1,6 -2,8 -9,11 z"
     id="path3005"
     inkscape:connector-curvature="0" />
  <path
     style="fill:none;stroke:#000000;stroke-width:1px;stroke-linecap:butt;stroke-linejoin:miter;stroke-opacity:1"
     d="m 686,561 5,-11 13,-13 12,-6 53,-6 17,1 11,2 12,3 13,6 8,6 7,11 4,10 1,11 -2,18 -3,9 -7,11 -17,10 -10,3 -17,3 -8,2 -37,-2 -11,-1 -8,-2 -15,-5 -12,-10 -7,-12 -3,-13 0,-18 z"
     id="path3007"
     inkscape:connector-curvature="0" />
  <path
     style="fill:none;stroke:#000000;stroke-width:1px;stroke-linecap:butt;stroke-linejoin:miter;stroke-opacity:1"
     d="m 665,656 7,-7 82,0 7,7 0,33 -8,8 -81,0 -7,-7 z"
     id="path3009"
     inkscape:connector-curvature="0" />
  <path
     style="fill:none;stroke:#000000;stroke-width:1px;stroke-linecap:butt;stroke-linejoin:miter;stroke-opacity:1"
     d="m 92,1121 3,-10 8,-11 12,-8 15,-5 11,-2 19,-1 20,2 15,3 8,2 10,7 9,11 5,15 0,23 -2,7 -5,14 -11,9 -17,7 -71,-1 -11,-5 -10,-9 -7,-13 -2,-6 z"
     id="path3011"
     inkscape:connector-curvature="0" />
  <path
     style="fill:none;stroke:#000000;stroke-width:1px;stroke-linecap:butt;stroke-linejoin:miter;stroke-opacity:1"
     d="m 78,1224 3,-11 6,-10 11,-9 22,-8 73,2 15,6 11,9 6,9 4,10 -1,30 -4,12 -9,10 -16,9 -14,5 -56,0 -16,-3 -12,-5 -11,-7 -9,-13 -3,-11 z"
     id="path3013"
     inkscape:connector-curvature="0" />
  <path
     style="fill:none;stroke:#000000;stroke-width:1px;stroke-linecap:butt;stroke-linejoin:miter;stroke-opacity:1"
     d="m 502,1073 7,-6 255,0 6,6 0,41 -6,6 -256,0 -6,-7 z"
     id="path3015"
     inkscape:connector-curvature="0" />
  <path
     style="fill:none;stroke:#000000;stroke-width:1px;stroke-linecap:butt;stroke-linejoin:miter;stroke-opacity:1"
     d="m 500,1135 6,-6 207,0 6,6 0,75 -6,7 -205,0 -8,-8 z"
     id="path3017"
     inkscape:connector-curvature="0" />
  <path
     style="fill:none;stroke:#000000;stroke-width:1px;stroke-linecap:butt;stroke-linejoin:miter;stroke-opacity:1"
     d="m 510,1238 8,-8 79,0 6,6 0,47 -3,2 -1,5 -8,0 -4,3 0,4 -10,6 -4,7 -55,0 -8,-8 z"
     id="path3019"
     inkscape:connector-curvature="0" />
</svg>
