<?xml version="1.0" encoding="UTF-8" standalone="no"?>
<!-- Created with Inkscape (http://www.inkscape.org/) -->

<svg
   xmlns:dc="http://purl.org/dc/elements/1.1/"
   xmlns:cc="http://creativecommons.org/ns#"
   xmlns:rdf="http://www.w3.org/1999/02/22-rdf-syntax-ns#"
   xmlns:svg="http://www.w3.org/2000/svg"
   xmlns="http://www.w3.org/2000/svg"
   xmlns:xlink="http://www.w3.org/1999/xlink"
   xmlns:sodipodi="http://sodipodi.sourceforge.net/DTD/sodipodi-0.dtd"
   xmlns:inkscape="http://www.inkscape.org/namespaces/inkscape"
   id="svg2"
   version="1.1"
   inkscape:version="0.48.1 "
   width="994"
   height="1528"
   sodipodi:docname="page17.jpg">
  <metadata
     id="metadata8">
    <rdf:RDF>
      <cc:Work
         rdf:about="">
        <dc:format>image/svg+xml</dc:format>
        <dc:type
           rdf:resource="http://purl.org/dc/dcmitype/StillImage" />
        <dc:title></dc:title>
      </cc:Work>
    </rdf:RDF>
  </metadata>
  <defs
     id="defs6" />
  <sodipodi:namedview
     pagecolor="#ffffff"
     bordercolor="#666666"
     borderopacity="1"
     objecttolerance="10"
     gridtolerance="10"
     guidetolerance="10"
     inkscape:pageopacity="0"
     inkscape:pageshadow="2"
     inkscape:window-width="1280"
     inkscape:window-height="744"
     id="namedview4"
     showgrid="true"
     inkscape:zoom="0.48683006"
     inkscape:cx="816.19131"
     inkscape:cy="1026.6263"
     inkscape:window-x="-4"
     inkscape:window-y="-4"
     inkscape:window-maximized="1"
     inkscape:current-layer="svg2">
    <inkscape:grid
       type="xygrid"
       id="grid2987" />
  </sodipodi:namedview>
  <image
     width="994"
     height="1528"
     xlink:href="page17.jpg"
     id="image10"
     x="0"
     y="0" />
  <path
     style="fill:none;stroke:#000000;stroke-width:1px;stroke-linecap:butt;stroke-linejoin:miter;stroke-opacity:1"
     d="m 184,195 1,-15 5,-12 11,-11 13,-7 13,-2 25,-2 28,2 18,5 11,6 11,14 3,13 0,18 -5,15 -7,9 -12,8 -17,5 -13,1 -31,0 -13,-1 -12,-3 -10,-5 -10,-8 -6,-11 -2,-5 z"
     id="path2989"
     inkscape:connector-curvature="0" />
  <path
     style="fill:none;stroke:#000000;stroke-width:1px;stroke-linecap:butt;stroke-linejoin:miter;stroke-opacity:1"
     d="m 431,246 2,-14 4,-10 8,-9 12,-6 13,-3 23,-2 25,2 13,3 11,6 9,9 4,13 0,20 -3,10 -6,9 -11,7 -16,5 -10,1 -47,-2 -10,-4 -10,-7 -7,-9 -2,-8 z"
     id="path2991"
     inkscape:connector-curvature="0" />
  <path
     style="fill:none;stroke:#000000;stroke-width:1px;stroke-linecap:butt;stroke-linejoin:miter;stroke-opacity:1"
     d="m 389,342 2,-16 3,-9 4,-7 8,-7 11,-6 15,-5 24,-3 9,-1 45,3 12,3 9,3 12,7 7,7 5,9 2,7 0,24 -5,13 -8,9 -12,7 -8,3 -13,3 -12,2 -51,0 -12,-2 -13,-3 -13,-6 -10,-7 -8,-14 z"
     id="path2993"
     inkscape:connector-curvature="0" />
  <path
     style="fill:none;stroke:#000000;stroke-width:1px;stroke-linecap:butt;stroke-linejoin:miter;stroke-opacity:1"
     d="m 653,56 6,-5 149,0 4,5 0,33 -5,4 -149,0 -4,-5 z"
     id="path2995"
     inkscape:connector-curvature="0" />
  <path
     style="fill:none;stroke:#000000;stroke-width:1px;stroke-linecap:butt;stroke-linejoin:miter;stroke-opacity:1"
     d="m 757,113 6,-7 73,0 4,5 0,19 -5,5 -71,0 -7,-7 z"
     id="path2997"
     inkscape:connector-curvature="0" />
  <path
     style="fill:none;stroke:#000000;stroke-width:1px;stroke-linecap:butt;stroke-linejoin:miter;stroke-opacity:1"
     d="m 745,362 1,-11 6,-11 12,-7 14,-5 12,-1 42,1 13,3 12,6 7,8 3,7 0,18 -5,9 -8,7 -17,6 -13,2 -35,0 -13,-2 -11,-3 -11,-7 -6,-8 z"
     id="path2999"
     inkscape:connector-curvature="0" />
  <path
     style="fill:none;stroke:#000000;stroke-width:1px;stroke-linecap:butt;stroke-linejoin:miter;stroke-opacity:1"
     d="m 152,475 3,-13 8,-11 10,-6 17,-4 20,-2 21,0 16,2 17,4 12,7 6,11 2,7 0,11 -3,11 -11,10 -6,4 -77,3 -12,-3 -11,-6 -7,-8 -3,-8 z"
     id="path3001"
     inkscape:connector-curvature="0" />
  <path
     style="fill:none;stroke:#000000;stroke-width:1px;stroke-linecap:butt;stroke-linejoin:miter;stroke-opacity:1"
     d="m 155,552 2,-12 5,-10 8,-8 11,-6 8,-4 75,-3 15,2 18,5 15,9 8,11 2,12 -1,16 -6,11 -11,9 -12,5 -12,3 -13,2 -57,-1 -20,-3 -15,-6 -9,-6 -6,-8 -3,-8 z"
     id="path3003"
     inkscape:connector-curvature="0" />
  <path
     style="fill:none;stroke:#000000;stroke-width:1px;stroke-linecap:butt;stroke-linejoin:miter;stroke-opacity:1"
     d="m 370,917 1,-13 5,-14 12,-14 20,-9 23,-5 31,-2 27,1 29,6 16,7 12,10 6,11 3,13 0,17 -3,14 -12,17 -6,2 -34,7 -37,8 -22,0 -30,-5 -20,-8 -13,-14 -5,-10 -2,-6 z"
     id="path3005"
     inkscape:connector-curvature="0"
     sodipodi:nodetypes="cccccccccccccccccccccccccc" />
  <path
     style="fill:none;stroke:#000000;stroke-width:1px;stroke-linecap:butt;stroke-linejoin:miter;stroke-opacity:1"
     d="m 464,974 75,-16 27,2 21,3 18,6 13,9 6,9 2,8 3,13 -2,15 -7,14 -2,2 -156,0 -7,-9 -3,-9 0,-25 3,-9 9,-11 z"
     id="path3007"
     inkscape:connector-curvature="0" />
  <path
     style="fill:none;stroke:#000000;stroke-width:1px;stroke-linecap:butt;stroke-linejoin:miter;stroke-opacity:1"
     d="m 739,467 3,-11 8,-9 18,-6 21,-2 19,2 16,4 9,7 4,11 0,10 -3,7 -5,7 -75,2 -9,-7 -5,-10 z"
     id="path3009"
     inkscape:connector-curvature="0" />
  <path
     style="fill:none;stroke:#000000;stroke-width:1px;stroke-linecap:butt;stroke-linejoin:miter;stroke-opacity:1"
     d="m 712,549 1,-9 2,-11 4,-12 6,-9 12,-10 14,-6 78,-3 24,7 14,11 7,10 5,14 1,16 -1,18 -8,19 -9,10 -15,8 -11,5 -12,1 -28,2 -26,-2 -21,-4 -19,-11 -11,-14 -4,-13 z"
     id="path3011"
     inkscape:connector-curvature="0" />
  <path
     style="fill:none;stroke:#000000;stroke-width:1px;stroke-linecap:butt;stroke-linejoin:miter;stroke-opacity:1"
     d="m 685,975 6,-7 246,0 4,5 0,52 -4,5 -246,0 -6,-6 z"
     id="path3013"
     inkscape:connector-curvature="0" />
  <path
     style="fill:none;stroke:#000000;stroke-width:1px;stroke-linecap:butt;stroke-linejoin:miter;stroke-opacity:1"
     d="m 397,1116 1,-8 3,-12 8,-11 13,-7 18,-4 22,-2 25,2 15,3 16,8 8,10 3,7 1,13 -2,14 -4,10 -8,8 -10,6 -18,4 -47,0 -19,-4 -14,-8 -8,-15 -2,-8 z"
     id="path3015"
     inkscape:connector-curvature="0" />
</svg>
