<?xml version="1.0" encoding="UTF-8" standalone="no"?>
<!-- Created with Inkscape (http://www.inkscape.org/) -->

<svg
   xmlns:dc="http://purl.org/dc/elements/1.1/"
   xmlns:cc="http://creativecommons.org/ns#"
   xmlns:rdf="http://www.w3.org/1999/02/22-rdf-syntax-ns#"
   xmlns:svg="http://www.w3.org/2000/svg"
   xmlns="http://www.w3.org/2000/svg"
   xmlns:xlink="http://www.w3.org/1999/xlink"
   xmlns:sodipodi="http://sodipodi.sourceforge.net/DTD/sodipodi-0.dtd"
   xmlns:inkscape="http://www.inkscape.org/namespaces/inkscape"
   id="svg2"
   version="1.1"
   inkscape:version="0.48.1 "
   width="994"
   height="1528"
   sodipodi:docname="page15.jpg">
  <metadata
     id="metadata8">
    <rdf:RDF>
      <cc:Work
         rdf:about="">
        <dc:format>image/svg+xml</dc:format>
        <dc:type
           rdf:resource="http://purl.org/dc/dcmitype/StillImage" />
        <dc:title></dc:title>
      </cc:Work>
    </rdf:RDF>
  </metadata>
  <defs
     id="defs6" />
  <sodipodi:namedview
     pagecolor="#ffffff"
     bordercolor="#666666"
     borderopacity="1"
     objecttolerance="10"
     gridtolerance="10"
     guidetolerance="10"
     inkscape:pageopacity="0"
     inkscape:pageshadow="2"
     inkscape:window-width="1280"
     inkscape:window-height="744"
     id="namedview4"
     showgrid="true"
     inkscape:zoom="0.68848167"
     inkscape:cx="745.06197"
     inkscape:cy="1263.368"
     inkscape:window-x="-4"
     inkscape:window-y="-4"
     inkscape:window-maximized="1"
     inkscape:current-layer="svg2">
    <inkscape:grid
       type="xygrid"
       id="grid2987" />
  </sodipodi:namedview>
  <image
     width="994"
     height="1528"
     xlink:href="page15.jpg"
     id="image10"
     x="0"
     y="0" />
  <path
     style="fill:none;stroke:#000000;stroke-width:1px;stroke-linecap:butt;stroke-linejoin:miter;stroke-opacity:1"
     d="m 216,82 3,-11 9,-10 19,-7 19,-2 38,0 22,3 19,8 7,10 1,10 -3,12 -6,7 -9,5 -10,3 -7,1 -12,2 -39,0 -16,-2 -13,-3 -9,-4 -7,-6 -5,-9 z"
     id="path2989"
     inkscape:connector-curvature="0" />
  <path
     style="fill:none;stroke:#000000;stroke-width:1px;stroke-linecap:butt;stroke-linejoin:miter;stroke-opacity:1"
     d="m 222,152 2,-7 4,-8 8,-6 7,-1 13,-2 19,1 9,4 7,5 4,9 0,10 -2,7 -6,7 -6,3 -6,2 -32,0 -12,-5 -6,-7 -2,-6 z"
     id="path2991"
     inkscape:connector-curvature="0" />
  <path
     style="fill:none;stroke:#000000;stroke-width:1px;stroke-linecap:butt;stroke-linejoin:miter;stroke-opacity:1"
     d="m 232,211 2,-8 4,-6 5,-4 9,-3 8,-2 17,-1 24,1 10,4 9,6 3,8 2,11 -2,4 -11,9 -15,4 -19,1 -18,-1 -13,-3 -10,-6 -3,-6 z"
     id="path2993"
     inkscape:connector-curvature="0" />
  <path
     style="fill:none;stroke:#000000;stroke-width:1px;stroke-linecap:butt;stroke-linejoin:miter;stroke-opacity:1"
     d="m 673,134 1,-7 4,-7 7,-5 8,-3 13,-3 14,-2 33,0 16,2 13,3 11,5 6,7 2,9 -3,11 -4,6 -9,5 -9,3 -17,3 -37,0 -17,-2 -13,-3 -12,-6 -6,-9 z"
     id="path2995"
     inkscape:connector-curvature="0" />
  <path
     style="fill:none;stroke:#000000;stroke-width:1px;stroke-linecap:butt;stroke-linejoin:miter;stroke-opacity:1"
     d="m 810,277 5,-5 121,0 5,5 0,41 -7,5 -118,0 -6,-6 z"
     id="path2997"
     inkscape:connector-curvature="0" />
  <path
     style="fill:none;stroke:#000000;stroke-width:1px;stroke-linecap:butt;stroke-linejoin:miter;stroke-opacity:1"
     d="m 728,341 5,-5 208,0 5,5 0,42 -6,5 -205,0 -7,-6 z"
     id="path2999"
     inkscape:connector-curvature="0" />
  <path
     style="fill:none;stroke:#000000;stroke-width:1px;stroke-linecap:butt;stroke-linejoin:miter;stroke-opacity:1"
     d="m 228,528 5,-7 235,0 5,4 0,32 -5,5 -233,0 -8,-8 z"
     id="path3001"
     inkscape:connector-curvature="0" />
  <path
     style="fill:none;stroke:#000000;stroke-width:1px;stroke-linecap:butt;stroke-linejoin:miter;stroke-opacity:1"
     d="m 246,616 4,-9 5,-4 6,-2 10,-2 17,0 9,2 7,3 6,6 3,10 -2,11 -4,7 -6,3 -12,3 -20,0 -13,-1 -4,-5 -5,-6 -1,-5 0,-11 z"
     id="path3003"
     inkscape:connector-curvature="0" />
</svg>
