<?xml version="1.0" encoding="UTF-8" standalone="no"?>
<!-- Created with Inkscape (http://www.inkscape.org/) -->

<svg
   xmlns:dc="http://purl.org/dc/elements/1.1/"
   xmlns:cc="http://creativecommons.org/ns#"
   xmlns:rdf="http://www.w3.org/1999/02/22-rdf-syntax-ns#"
   xmlns:svg="http://www.w3.org/2000/svg"
   xmlns="http://www.w3.org/2000/svg"
   xmlns:xlink="http://www.w3.org/1999/xlink"
   xmlns:sodipodi="http://sodipodi.sourceforge.net/DTD/sodipodi-0.dtd"
   xmlns:inkscape="http://www.inkscape.org/namespaces/inkscape"
   id="svg2"
   version="1.1"
   inkscape:version="0.48.2 r9819"
   width="994"
   height="1528"
   sodipodi:docname="page4.svg">
  <metadata
     id="metadata8">
    <rdf:RDF>
      <cc:Work
         rdf:about="">
        <dc:format>image/svg+xml</dc:format>
        <dc:type
           rdf:resource="http://purl.org/dc/dcmitype/StillImage" />
        <dc:title />
      </cc:Work>
    </rdf:RDF>
  </metadata>
  <defs
     id="defs6" />
  <sodipodi:namedview
     pagecolor="#ffffff"
     bordercolor="#666666"
     borderopacity="1"
     objecttolerance="10"
     gridtolerance="10"
     guidetolerance="10"
     inkscape:pageopacity="0"
     inkscape:pageshadow="2"
     inkscape:window-width="1600"
     inkscape:window-height="838"
     id="namedview4"
     showgrid="true"
     inkscape:zoom="1.2356021"
     inkscape:cx="468.48556"
     inkscape:cy="760.73271"
     inkscape:window-x="0"
     inkscape:window-y="28"
     inkscape:window-maximized="1"
     inkscape:current-layer="svg2">
    <inkscape:grid
       type="xygrid"
       id="grid2987" />
  </sodipodi:namedview>
  <image
     width="994"
     height="1528"
     xlink:href="page4.jpg"
     id="image10"
     x="0"
     y="0" />
  <path
     style="fill:none;stroke:#000000;stroke-width:1px;stroke-linecap:butt;stroke-linejoin:miter;stroke-opacity:1"
     d="m 20,18 300,0 0,410 -300,0 z"
     id="path2989"
     inkscape:connector-curvature="0" />
  <path
     style="fill:none;stroke:#000000;stroke-width:1px;stroke-linecap:butt;stroke-linejoin:miter;stroke-opacity:1"
     d="m 310,-2 60,0 300,0 20,10 20,-10 20,10 90,0 20,10 40,0 40,-10 20,0 0,30 30,0 0,210 20,20 -10,10 20,30 -10,20 -20,20 0,10 30,-10 0,150 -10,0 -20,-10 0,60 -140,0 -20,10 -30,0 -20,-10 -80,0 -10,10 -20,-10 -10,10 -20,20 -10,-10 -10,-20 0,0 -160,0 -30,10 -80,40 -10,0 -20,-10 0,0 0,0 0,0 -30,-80 -20,-60 50,-20 10,-10 0,-20 0,-380 z"
     id="path3010"
     inkscape:connector-curvature="0"
     sodipodi:nodetypes="cccccccccccccccccccccccccccccccccccccccccccccccccccc" />
  <path
     style="fill:none;stroke:#000000;stroke-width:1px;stroke-linecap:butt;stroke-linejoin:miter;stroke-opacity:1"
     d="m 48,560 71,0 -20,-8 -13,-11 -10,-18 0,-37 13,-23 28,-15 39,-1 28,1 27,8 21,21 3,22 -2,25 -6,14 -4,6 -13,10 10,4 70,0 60,0 60,0 120,0 0,430 -317,-1 -14,33 -9,1 -20,-13 -7,0 -2,14 -6,34 -10,17 -16,0 -6,-10 6,-25 6,-45 -5,-5 -10,0 -50,0 -10,20 -20,20 -10,0 -10,-10 30,-70 -20,-15 10,-55 6,-22 0,-18 z"
     id="path3012"
     inkscape:connector-curvature="0"
     sodipodi:nodetypes="cccccccccccccccccccccccccccccccccccccccccccccccc" />
  <path
     style="fill:none;stroke:#000000;stroke-width:1px;stroke-linecap:butt;stroke-linejoin:miter;stroke-opacity:1"
     d="m 540,773 0,-25 15,-25 10,-10 0,-25 0,-25 15,-20 25,-15 20,0 30,5 5,5 30,0 60,15 -10,-30 0,-25 10,-15 20,-15 30,-5 55,0 40,10 15,20 5,15 0,15 -5,15 -10,10 -10,10 -10,5 10,35 5,20 0,35 0,5 15,0 25,5 20,15 10,20 0,30 0,5 -5,15 -15,15 -20,10 -25,5 -55,0 -25,-10 -60,0 -10,0 -10,15 0,5 5,15 10,10 15,15 60,60 -295,0 0,-100 15,-10 5,-10 15,-10 5,0 0,-10 5,-5 -30,-35 -10,-25 0,-10 z"
     id="path3014"
     inkscape:connector-curvature="0" />
  <path
     style="fill:none;stroke:#000000;stroke-width:1px;stroke-linecap:butt;stroke-linejoin:miter;stroke-opacity:1"
     d="m 40,998 550,0 0,500 -150,0 -40,20 -30,-20 -330,0 0,-70 -50,-50 0,-30 50,-100 z"
     id="path3016"
     inkscape:connector-curvature="0" />
  <path
     style="fill:none;stroke:#000000;stroke-width:1px;stroke-linecap:butt;stroke-linejoin:miter;stroke-opacity:1"
     d="m 590,998 370,0 0,500 -370,0 z"
     id="path3018"
     inkscape:connector-curvature="0" />
</svg>
